<svg xmlns="http://www.w3.org/2000/svg" fill="none" viewBox="0 0 513 448">
  <path fill="currentColor" d="M480.5 24c0-13.25-10.7-24-24-24h-368a88 88 0 0 0-88 88v128.31a169.9 169.9 0 0 1 48-51.07V88a40 40 0 0 1 40-40h368c13.3 0 24-10.75 24-24Z"/>
  <path fill="currentColor" d="M284.1 400a169.89 169.89 0 0 1-50.6 48h191a88 88 0 0 0 88-88V184a88 88 0 0 0-88-88h-304c-13.3 0-24 10.7-24 24s10.7 24 24 24h304c22.1 0 40 17.9 40 40v176c0 22.1-17.9 40-40 40H284.1Z"/>
  <path fill="currentColor" d="M384.5 240c-17.7 0-32 14.3-32 32s14.3 32 32 32 32-14.3 32-32-14.3-32-32-32ZM1 304c0-79.5 65.4-144 144.9-144s144 64.5 144 144-64.5 144-144 144S1 383.5 1 304Zm160.9-64.9c0-7.9-7.2-16-16-16s-16 8.1-16 16v48h-48c-8.8 0-16 8.1-16 16 0 9.7 7.2 16 16 16h48v48c0 9.7 7.2 16 16 16s16-6.3 16-16v-48h48c8.8 0 16-6.3 16-16 0-7.9-7.2-16-16-16h-48v-48Z"/>
</svg>