<svg xmlns="http://www.w3.org/2000/svg" fill="none" viewBox="0 0 64 64">
  <path fill="#121122" d="M0 32a32 32 0 1 0 64 0 32 32 0 0 0-64 0Z"/>
  <path fill="#F2F4F8" fill-rule="evenodd" d="M9.65 23.9c-.39 2.5.07 5.1.55 7.6.19.39.6.65 1.09.83a16.2 16.2 0 0 0-1.58 6.96c0 10.42 10.08 18.87 22.52 18.87s22.53-8.43 22.53-18.87c0-2.43-.56-4.84-1.62-7.03.42-.17.75-.42.91-.77.48-2.5.94-5.08.55-7.6-.37-3.38-1.53-4.4-5-3.54a19.2 19.2 0 0 0-5.9 2.68 25.8 25.8 0 0 0-11.47-2.62c-4.24 0-8.2.98-11.58 2.68a19.18 19.18 0 0 0-5.99-2.74c-3.48-.87-4.64.16-5 3.54l-.01.01Zm13.12 14.88c-2.64-1.16-7.15-.87-7.15-.87s.2 4.25 2.8 5.7c3.07 1.7 8.78.86 8.78.86s-.48-3.95-4.43-5.7v.01Zm14.67 5.7s5.7.84 8.78-.87c2.59-1.44 2.8-5.69 2.8-5.69s-4.51-.3-7.15.87a7.63 7.63 0 0 0-4.43 5.67v.02Zm-6.34 2.99c0 .31.58.56 1.3.56.72 0 1.3-.25 1.3-.56 0-.32-.58-.57-1.3-.57-.72 0-1.3.24-1.3.57Z" clip-rule="evenodd"/>
  <path fill="#F2F4F8" fill-rule="evenodd" d="M57.9 44.85a18.54 18.54 0 0 0-6.61-1.24c-.57 0-.57-.9 0-.9 2.34.01 4.66.45 6.84 1.3a.45.45 0 0 1 .31.53.45.45 0 0 1-.55.31h.01Zm-51.43-.83c2.18-.84 4.5-1.27 6.84-1.28.58 0 .57.9 0 .9-2.26 0-4.5.42-6.6 1.24a.45.45 0 0 1-.55-.3.46.46 0 0 1 .31-.56ZM11 46.57a12.1 12.1 0 0 1 3.38-.57c.57 0 .57.9 0 .9-1.05.02-2.09.2-3.09.51-.92.27-1.98.65-2.66 1.28-.42.39-1.05-.24-.63-.63a7.62 7.62 0 0 1 3-1.5v.01Zm4.4 1.65c-.9.38-1.76.84-2.57 1.37a7.98 7.98 0 0 0-2.13 1.92.45.45 0 0 0 .16.6.46.46 0 0 0 .6-.15 7.02 7.02 0 0 1 1.93-1.68c.78-.5 1.6-.93 2.44-1.3a.45.45 0 0 0 .16-.6.46.46 0 0 0-.6-.16h.01Zm34.82-1.35c1.05.03 2.09.2 3.08.52.52.14 1.02.33 1.51.55.42.19.81.43 1.16.73.42.39 1.05-.24.63-.63a7.54 7.54 0 0 0-3-1.5c-1.1-.35-2.23-.53-3.38-.56-.57 0-.57.9 0 .9Zm.98 3.38c-.77-.47-1.57-.89-2.4-1.24a.45.45 0 0 1-.16-.62.46.46 0 0 1 .6-.16c1.74.76 3.56 1.73 4.7 3.3a.45.45 0 0 1-.16.6.46.46 0 0 1-.61-.16 7.04 7.04 0 0 0-1.97-1.72Z" clip-rule="evenodd"/>
  <path fill="#6665DD" d="M3.1 33.75c.4-.64 4.01-2.56 8.48-3.7.96-2.74 2.15-5.4 3.55-7.94-.02 0 3.57-6.44 3.56-6.44A20.3 20.3 0 0 1 15.73 14c-.16-.12-.3-.26-.43-.41a.98.98 0 0 1-.14-.53c0-.15.2-.41.3-.53.25-.28.51-.54.8-.78a21 21 0 0 1 2.15-1.55l1.1-.69c2.55-1.63 3.96-2.86 6.3-4.2 2.24-1.29 3.33-2.08 5.93-1.95 3.26 0 11.38 10.34 15.03 15.67 2.2 3.2 5.14 8.96 6.23 11.13.26.06.5.12.7.2 3.34 1 6.6 2.45 7.4 3.4.7.81-2.4 1.2-5.46 1.71-3.07.54-13.46.8-23.44.87-9.99.07-21.64-.27-24.18-.67-2.54-.4-5.44-1.13-4.93-1.93l.01.01Z"/>
  <path fill="#FF99A5" d="M50.21 24.82s-6.58-1.64-18.17-1.64c-12.44 0-18.43 1.92-18.43 1.92s-.71 1.35-1.02 2.13c-.31.78-1.01 2.81-1.01 2.81s9.05-1.62 20.64-1.62c6.98.03 13.94.62 20.82 1.76 0 0-1.05-2.46-1.68-3.5-.37-.62-.76-1.24-1.15-1.85v-.01Z"/>
  <path fill="#FFE600" d="M11.06 10.92c.76-.11 1.78 2.2 1.78 2.2s2.37-.64 2.74 0c.37.64-1.66 2.17-1.66 2.17s1.23 2.16.84 2.61c-.4.45-2.6-.91-2.6-.91s-1.66 1.88-2.21 1.6c-.54-.29.08-2.74.08-2.74s-2.37-1-2.2-1.6c.15-.6 2.62-.78 2.62-.78s-.14-2.44.6-2.55Z"/>
</svg>