<svg xmlns="http://www.w3.org/2000/svg" fill="none" viewBox="0 0 24 18">
  <g clip-path="url(#a)">
    <path fill="currentColor" d="M.563 5.625H18V8.25c0 1.385 1.712 2.019 2.621.997l3-3.375a1.5 1.5 0 0 0 0-1.994l-3-3.375C19.713-.519 18 .114 18 1.5v2.625H.562A.563.563 0 0 0 0 4.687v.375c0 .311.252.563.563.563ZM19.5 1.5l3 3.375-3 3.375V1.5Zm3.938 10.125H6V9c0-1.385-1.712-2.019-2.621-.997l-3 3.375a1.5 1.5 0 0 0 0 1.993l3 3.376C4.287 17.768 6 17.136 6 15.75v-2.625h17.438c.31 0 .562-.252.562-.563v-.374a.563.563 0 0 0-.563-.563ZM4.5 15.75l-3-3.375L4.5 9v6.75Z"/>
  </g>
  <defs>
    <clipPath id="a">
      <path fill="#fff" d="M0 0h24v17.25H0z"/>
    </clipPath>
  </defs>
</svg>