<svg xmlns="http://www.w3.org/2000/svg" fill="none" viewBox="0 0 314 314">
    <path fill="currentColor" fill-rule="evenodd" d="M247.1 162.76a14.92 14.92 0 0 1-14.69-17.38l-16.05-8 11.86 75.44-73.49-49.41-62.44 35.23 70.24 22.44-25.17 18.9A14.92 14.92 0 0 1 123.78 261c-8.22 0-14.9-6.69-14.9-14.9 0-8.22 6.69-14.9 14.9-14.9a14.8 14.8 0 0 1 8.99 3.03l13.96-10.48L74 200.52l77.5-43.73 9.36-71.53-60.12 42.71V95.33a14.91 14.91 0 0 1-11.22-14.42c0-8.22 6.68-14.91 14.9-14.91s14.9 6.69 14.9 14.9c0 6.95-4.78 12.79-11.22 14.43v18.4l62.24-44.22-11.5 87.8 59.5 40-11.45-72.85 28.51 14.2a14.88 14.88 0 0 1 26.6 9.2c0 8.22-6.69 14.9-14.9 14.9Zm-142.68-89.4a7.56 7.56 0 0 1 0 15.1 7.56 7.56 0 0 1 0-15.1ZM247.1 140.3a7.56 7.56 0 0 0 0 15.1 7.56 7.56 0 0 0 0-15.1ZM116.22 246.1a7.56 7.56 0 0 1 15.1 0 7.56 7.56 0 0 1-15.1 0Z" clip-rule="evenodd" />
    <path fill="currentColor"
        d="m232.41 145.38 5.43.9.67-4.01-3.64-1.81-2.46 4.92Zm-16.05-8 2.45-4.91-9.54-4.75 1.66 10.52 5.43-.85Zm11.86 75.44-3.07 4.56 10.46 7.03-1.96-12.45-5.43.85Zm-73.49-49.41 3.07-4.57-2.81-1.9-2.96 1.68 2.7 4.78ZM92.3 198.63l-2.7-4.79-10.98 6.2 12 3.83 1.68-5.24Zm70.24 22.44 3.3 4.4 8.52-6.4-10.14-3.24-1.68 5.24Zm-25.17 18.9-3.3-4.4-3.53 2.65 1.82 4.02 5-2.27Zm-4.6-5.75-3.32 4.38 3.3 2.52 3.33-2.5-3.3-4.4Zm13.97-10.48 3.3 4.4 8.52-6.4-10.15-3.24-1.67 5.24ZM74 200.52l-2.7-4.8-10.98 6.2 12 3.84 1.68-5.24Zm77.5-43.73 2.7 4.79 2.4-1.35.35-2.73-5.45-.71Zm9.36-71.53 5.46.72 1.63-12.5-10.27 7.3 3.18 4.48Zm-60.12 42.71h-5.5v10.66l8.69-6.17-3.19-4.49Zm0-32.64h5.5v-4.27L102.1 90l-1.35 5.33Zm7.36 0L106.74 90l-4.14 1.06v4.27h5.5Zm0 18.4h-5.5v10.66l8.68-6.17-3.18-4.49Zm62.24-44.22 5.45.72 1.64-12.5-10.28 7.3 3.19 4.48Zm-11.5 87.8-5.45-.72-.44 3.38 2.82 1.9 3.07-4.56Zm59.5 40-3.07 4.57 10.46 7.03-1.96-12.45-5.43.85Zm-11.45-72.85 2.45-4.92-9.54-4.75 1.65 10.52 5.44-.85Zm28.51 14.2-2.45 4.92 4 1.99 2.77-3.51-4.32-3.4Zm-8.7 9.2a20.4 20.4 0 0 0 20.4 20.4v-11a9.42 9.42 0 0 1-9.4-9.4h-11Zm.29-3.39c-.17 1.03-.3 2.17-.3 3.4h11c0-.48.05-1 .15-1.58l-10.85-1.82Zm-13.08-2.16 16.05 8 4.9-9.85-16.05-8-4.9 9.85Zm19.74 69.65-11.86-75.43-10.86 1.71 11.85 75.43 10.87-1.71Zm-81.99-44 73.49 49.42 6.14-9.13-73.49-49.41-6.14 9.13ZM95 203.44l62.45-35.24-5.41-9.57-62.45 35.23 5.41 9.58Zm69.22 12.41L93.96 193.4l-3.35 10.48 70.25 22.44 3.35-10.48Zm-23.55 28.54 25.17-18.9-6.6-8.8-25.17 18.9 6.6 8.8Zm3.53 1.72c0-3-.67-5.84-1.82-8.39l-10.02 4.54a9.3 9.3 0 0 1 .84 3.85h11Zm-20.4 20.4c11.25 0 20.4-9.15 20.4-20.4h-11c0 5.18-4.23 9.4-9.4 9.4v11Zm-20.41-20.4c0 11.25 9.15 20.4 20.4 20.4v-11a9.42 9.42 0 0 1-9.4-9.4h-11Zm20.4-20.4a20.42 20.42 0 0 0-20.4 20.4h11a9.4 9.4 0 0 1 9.4-9.4v-11Zm12.31 4.15a20.3 20.3 0 0 0-12.3-4.16v11c2.1 0 4.06.71 5.65 1.92l6.66-8.76Zm7.34-10.5-13.96 10.49 6.6 8.8 13.96-10.49-6.6-8.8Zm-71.1-13.6L145.06 229l3.34-10.48-72.73-23.23-3.34 10.48ZM148.79 152l-77.5 43.73 5.41 9.58 77.5-43.73-5.4-9.58Zm6.62-67.45-9.37 71.53 10.91 1.42 9.37-71.52-10.91-1.43Zm-51.48 47.9 60.12-42.7-6.37-8.97-60.12 42.71 6.37 8.97Zm-8.69-37.12v32.64h11V95.33h-11ZM84.02 80.91c0 9.53 6.56 17.5 15.37 19.75L102.1 90a9.41 9.41 0 0 1-7.08-9.1h-11Zm20.4-20.41a20.42 20.42 0 0 0-20.4 20.4h11c0-5.18 4.22-9.4 9.4-9.4v-11Zm20.4 20.4c0-11.25-9.14-20.4-20.4-20.4v11c5.18 0 9.4 4.22 9.4 9.4h11Zm-15.36 19.76a20.42 20.42 0 0 0 15.37-19.75h-11a9.42 9.42 0 0 1-7.1 9.09l2.73 10.66Zm4.14 13.07v-18.4h-11v18.4h11Zm53.55-48.7-62.24 44.22 6.37 8.97L173.53 74l-6.38-8.97Zm-2.85 93 11.5-87.8-10.91-1.43-11.5 87.8 10.9 1.42Zm57.1 34.72-59.49-40-6.14 9.12 59.5 40 6.14-9.12Zm-19.95-67.44 11.46 72.86 10.86-1.71-11.45-72.85-10.87 1.7Zm36.4 8.42-28.51-14.2-4.9 9.85 28.5 14.2 4.91-9.85Zm9.25-6.27a20.4 20.4 0 0 0-16.02 7.78l8.64 6.82a9.38 9.38 0 0 1 7.38-3.6v-11Zm20.4 20.4c0-11.26-9.15-20.4-20.4-20.4v11c5.18 0 9.4 4.22 9.4 9.4h11Zm-20.4 20.4c11.25 0 20.4-9.14 20.4-20.4h-11c0 5.18-4.22 9.4-9.4 9.4v11ZM117.47 80.91c0-7.2-5.85-13.06-13.05-13.06v11c1.13 0 2.05.93 2.05 2.06h11Zm-13.05 13.05c7.2 0 13.05-5.85 13.05-13.05h-11c0 1.12-.92 2.05-2.05 2.05v11ZM91.37 80.9c0 7.2 5.85 13.05 13.05 13.05v-11a2.06 2.06 0 0 1-2.05-2.05h-11Zm13.05-13.06c-7.2 0-13.05 5.85-13.05 13.06h11c0-1.13.92-2.06 2.05-2.06v-11Zm140.62 80.01c0-1.13.93-2.05 2.06-2.05v-11c-7.2 0-13.06 5.85-13.06 13.05h11Zm2.06 2.05a2.06 2.06 0 0 1-2.06-2.05h-11c0 7.2 5.85 13.05 13.06 13.05v-11Zm2.05-2.05c0 1.13-.93 2.05-2.06 2.05v11c7.2 0 13.06-5.85 13.06-13.05h-11Zm-2.06-2.05c1.13 0 2.06.93 2.06 2.05h11c0-7.2-5.85-13.05-13.05-13.05v11Zm-123.3 87.23c-7.2 0-13.06 5.86-13.06 13.06h11c0-1.13.93-2.06 2.05-2.06v-11Zm13.04 13.06c0-7.2-5.84-13.06-13.05-13.06v11c1.13 0 2.05.93 2.05 2.06h11Zm-13.05 13.05c7.2 0 13.05-5.85 13.05-13.05h-11c0 1.12-.92 2.05-2.05 2.05v11Zm-13.05-13.05c0 7.2 5.85 13.05 13.05 13.05v-11a2.06 2.06 0 0 1-2.05-2.05h-11Z" />
    <circle cx="157" cy="157" r="145" stroke="currentColor" stroke-width="24" />
</svg>