<svg xmlns="http://www.w3.org/2000/svg" fill="none" viewBox="0 0 960 960">
  <circle cx="480" cy="480" r="480" fill="#fff"/>
  <path fill="#0074FF" fill-rule="evenodd" d="m684.98 224.56-176.01-92.8c-8.54-4.5-19.33-6.76-30.15-6.76-10.8 0-21.6 2.26-30.14 6.76l-176 92.8c-10.5 5.53-15.82 13.35-16.58 21.67a.5.5 0 0 1-.08.22v.95c-.02.63-.02 1.26 0 1.9v460.97c-.03.77-.03 1.54 0 2.31.26 8.95 5.54 17.99 16.65 23.85l176.01 92.8c8.54 4.5 19.33 6.76 30.14 6.76 10.82 0 21.6-2.26 30.15-6.76l176-92.8c11.18-5.88 16.8-14.85 17.03-23.84V246.56a.5.5 0 0 1-.17-.32c-1-8.24-6.57-16.27-16.85-21.68ZM251.56 759.33c-9.33-6.43-14.49-11.72-17.94-18.7-4.1-8.3-6.16-20-6.2-37.63H201v.75c.1 20.38 2.61 35.4 8.37 47.57 5.75 12.16 14.77 21.5 27.95 30.47 2.73 1.85 5.5 3.64 8.31 5.38l1.86 1.15 10.64 6.5L271.82 772l-9.48-5.77-3.22-2a206.07 206.07 0 0 1-7.03-4.55l-.53-.35Zm214.38-378.06a.5.5 0 0 1 .06.23v190a.5.5 0 0 1-.66.47c-1.3-.44-2.53-.96-3.65-1.56l-175.74-93.09h-.01l-.4-.22-.29-.17a.5.5 0 0 1 0-.86l.14-.09h.01l.02-.01.53-.28 175.74-93.1a25.2 25.2 0 0 1 3.65-1.56.5.5 0 0 1 .45.06c.06.05.12.11.15.18Zm27.49-.26a.5.5 0 0 1 .23.02c1.3.45 2.53.96 3.65 1.56l175.74 93.09h.01l.4.22.29.17a.5.5 0 0 1 .16.72.5.5 0 0 1-.15.14l-.15.09-.03.01-.53.28-175.74 93.1c-1.12.6-2.35 1.12-3.65 1.56a.5.5 0 0 1-.45-.06.5.5 0 0 1-.21-.4V381.49a.5.5 0 0 1 .21-.4.51.51 0 0 1 .22-.1v.02Zm181.33-101.94c.15.1.24.25.24.43v166a.5.5 0 0 1-.74.44l-158-83a.5.5 0 0 1 0-.88l158-83a.5.5 0 0 1 .5.01ZM283.49 279a.5.5 0 0 1 .24.06l158 83a.5.5 0 0 1 0 .88l-158 83a.5.5 0 0 1-.49-.01.5.5 0 0 1-.24-.43v-166a.5.5 0 0 1 .48-.5h.01Zm390.1-28.98-.52.3h-.02l-175.9 93c-4.66 2.47-11.17 3.68-17.65 3.68-6.47 0-12.98-1.21-17.65-3.68l-175.9-93h-.01l-.4-.22-.29-.17a.5.5 0 0 1 0-.86l.14-.09h.01l.02-.01.53-.28 175.9-93c4.65-2.47 11.17-3.69 17.65-3.69 6.43 0 12.9 1.2 17.57 3.64l.08.04 175.9 93h.01l.4.22.29.17a.5.5 0 0 1-.01.87l-.14.07-.02.01h.01Zm33.86-48.35h.01c9.32 6.43 14.48 11.72 17.93 18.7 4.1 8.3 6.16 20 6.2 37.63h26.42v-.74c-.1-20.38-2.61-35.41-8.37-47.58-5.75-12.15-14.76-21.5-27.94-30.47a257.75 257.75 0 0 0-8.33-5.39l-1.85-1.14-10.65-6.5L687.19 189l9.48 5.77 3.22 2c2.37 1.47 4.72 3 7.03 4.56l.53.34ZM675 505.5a.5.5 0 0 0-.73-.44L508.9 592.52c-8.53 4.5-19.3 6.77-30.1 6.77-10.79 0-21.56-2.26-30.09-6.77l-164.98-87.26a.5.5 0 0 0-.66.2.5.5 0 0 0-.07.24v205.47c0 .19.1.36.27.44l164.98 86.8c9.74 5.21 19.97 10.36 29.99 10.58l.57.01c9.38.03 18.47-4.43 27.52-8.88l1.12-.55.7-.34h.01l166.57-88.37a.5.5 0 0 0 .27-.44V505.5Z" clip-rule="evenodd"/>
</svg>