<svg xmlns="http://www.w3.org/2000/svg" fill="none" viewBox="0 0 32 32">
  <path fill="#fff" d="M16 32a16 16 0 1 0 0-32 16 16 0 0 0 0 32Z"/>
  <path fill="#0074FF" fill-rule="evenodd" d="m22.83 7.49-5.86-3.1a2.2 2.2 0 0 0-1-.22c-.37 0-.73.07-1.01.22L9.09 7.5c-.35.18-.53.44-.55.72v.04a1 1 0 0 0 0 .06v15.44c0 .3.18.6.55.8l5.87 3.1a2.3 2.3 0 0 0 2-.01l5.87-3.1c.38-.19.56-.49.57-.79V8.21c-.04-.28-.22-.54-.57-.72ZM8.4 25.3a1.52 1.52 0 0 1-.6-.62c-.14-.28-.2-.67-.2-1.26h-.9v.03c0 .68.09 1.18.28 1.58.2.41.5.72.93 1.02l.28.18.06.04.35.21.46-.76-.32-.19-.1-.07-.24-.15Zm7.14-12.6v6.34a.02.02 0 0 1-.01.02.8.8 0 0 1-.13-.06l-5.86-3.1h-.01l-.01-.01a.02.02 0 0 1-.01-.02.02.02 0 0 1 0-.01h.01l.02-.01 5.86-3.1a.84.84 0 0 1 .13-.06h.01Zm.92 0c0-.01 0-.01 0 0 .05 0 .09.02.13.04l5.86 3.1v.01h.02v.01a.02.02 0 0 1 0 .02v.01l-.02.01-5.86 3.1a.8.8 0 0 1-.13.06l-.01-.01V12.7Zm6.04-3.4h.01v5.54a.02.02 0 0 1-.02.02L17.2 12.1l-.01-.02v-.01l5.28-2.77a.02.02 0 0 1 .01 0Zm-13.05 0 5.27 2.77h.01a.02.02 0 0 1 0 .02l-5.27 2.78h-.01l-.01-.01V9.32a.02.02 0 0 1 .01-.02Zm13-.97-.01.01-5.87 3.1a1.3 1.3 0 0 1-.59.13c-.21 0-.43-.04-.58-.13l-5.87-3.1h-.02a.02.02 0 0 1 0-.04l.02-.01 5.87-3.1c.15-.08.37-.12.58-.12.22 0 .43.04.59.12l5.87 3.1.02.01a.02.02 0 0 1 0 .03Zm1.13-1.6c.31.2.48.38.6.62.14.27.2.66.2 1.25h.89v-.02a3.7 3.7 0 0 0-.28-1.59c-.2-.4-.5-.72-.93-1.02a8.6 8.6 0 0 0-.28-.18l-.06-.03-.36-.22-.45.76.31.2.11.06.23.15.02.01ZM22.5 16.84a.02.02 0 0 0-.02-.01l-5.52 2.91a2.2 2.2 0 0 1-1 .23c-.36 0-.72-.08-1-.23l-5.5-2.9h-.02v6.87l5.5 2.9c.33.17.67.34 1 .35h.02c.31 0 .62-.15.92-.3l.04-.02h.02l5.55-2.95v-.01h.01v-6.84Z" clip-rule="evenodd"/>
</svg>